<svg width="272" height="272" viewBox="0 0 272 272" fill="none" xmlns="http://www.w3.org/2000/svg">
<path d="M60.4978 67.5L60.5 67.5L60.5094 67.5001C60.5228 67.5002 60.5464 67.5005 60.5798 67.5011C60.6467 67.5023 60.7528 67.5048 60.8957 67.5101C61.1814 67.5207 61.6134 67.5425 62.1707 67.5868C63.2861 67.6757 64.8981 67.8549 66.8401 68.2157C70.7346 68.9394 75.8962 70.3826 81.0327 73.2461C86.1547 76.1015 91.2411 80.3613 95.0574 86.7439C98.8718 93.1231 101.5 101.76 101.5 113.5C101.5 118.626 100.529 123.171 99.5616 127.448C95.9265 143.517 86.19 151.458 77.3393 155.458C72.8807 157.473 68.636 158.487 65.5033 158.996C63.9404 159.25 62.6641 159.376 61.7893 159.438C61.3522 159.47 61.0163 159.485 60.7959 159.493C60.6857 159.497 60.6045 159.498 60.5541 159.499L60.5019 159.5L60.5 159.5L60.4952 159.5H60.4938H60.4935L34.5 159.5H32V162V204.5H2.5V67.5H34.5H60.4971L60.4978 67.5ZM32 139V141.5H34.5H53V139C53 141.5 53.0019 141.5 53.0038 141.5L53.008 141.5L53.0176 141.5L53.0414 141.5C53.0593 141.5 53.0813 141.499 53.1072 141.499C53.159 141.497 53.2266 141.495 53.3089 141.491C53.4735 141.483 53.6975 141.467 53.9727 141.438C54.5221 141.38 55.2805 141.266 56.1787 141.044C57.972 140.6 60.3562 139.715 62.7402 137.945C67.6267 134.317 72 127.37 72 114.5C72 101.63 67.6267 94.6831 62.7402 91.0552C60.3562 89.2853 57.972 88.3998 56.1787 87.956C55.2805 87.7337 54.5221 87.6201 53.9727 87.5618C53.6975 87.5326 53.4735 87.5172 53.3089 87.509C53.2266 87.505 53.159 87.5027 53.1072 87.5015C53.0813 87.5008 53.0593 87.5005 53.0414 87.5003L53.0176 87.5001L53.008 87.5L53.0038 87.5C53.0019 87.5 53 87.5 53 90V87.5H34.5H32V90V139Z" fill="#015470" stroke="#D9E5F0" stroke-width="5"/>
<path d="M237.484 67.5H267.242L230.817 132.782L230.156 133.966L230.789 135.166L267.355 204.5H237.533L208.228 146.867L207.533 145.5H206H198H195.5V148V204.5H166V67.5H195.5V120V122.5H198H206H207.484L208.195 121.197L237.484 67.5Z" fill="#015470" stroke="#D9E5F0" stroke-width="5"/>
<path d="M138 204.5C100.168 204.5 69.5 173.832 69.5 136C69.5 98.1685 100.168 67.5 138 67.5C155.89 67.5 172.175 74.3552 184.377 85.5872L163.753 106.211C156.885 100.168 147.869 96.5 138 96.5C116.461 96.5 99 113.961 99 135.5C99 157.039 116.461 174.5 138 174.5C147.869 174.5 156.885 170.832 163.753 164.789L184.895 185.931C172.638 197.448 156.144 204.5 138 204.5Z" fill="#015470" stroke="#D9E5F0" stroke-width="5"/>
</svg>
