<svg width="272" height="272" viewBox="0 0 272 272" fill="none" xmlns="http://www.w3.org/2000/svg">
<path fill-rule="evenodd" clip-rule="evenodd" d="M0 207V65H34.5H60.5C60.5 65 104 65 104 113.5C104 118.931 102.969 123.717 102 128C94.3171 161.962 60.5 162 60.5 162H34.5V207H0ZM53 139H34.5V90H53C53 90 69.5 90 69.5 114.5C69.5 139 53 139 53 139Z" fill="#D9E5F0"/>
<path d="M163.5 207V65H198V120H206L236 65H271.5L233 134L271.5 207H236L206 148H198V207H163.5Z" fill="#D9E5F0"/>
<path d="M138 207C98.7878 207 67 175.212 67 136C67 96.7878 98.7878 65 138 65C157.479 65 175.126 72.8442 187.954 85.546L163.809 109.691C157.204 103.085 148.079 99 138 99C117.842 99 101.5 115.342 101.5 135.5C101.5 155.658 117.842 172 138 172C148.079 172 157.204 167.915 163.809 161.309L188.454 185.954C175.586 198.95 157.733 207 138 207Z" fill="#79ADBF"/>
</svg>
