<svg width="207" height="206" viewBox="0 0 207 206" fill="none" xmlns="http://www.w3.org/2000/svg">
<rect width="154.5" height="206" rx="10" fill="#1D728F"/>
<rect x="8.58203" y="8.58334" width="137.333" height="188.833" rx="5" fill="#75A4B5"/>
<path d="M51.5 8.58334H103V14.8833C103 17.0925 101.209 18.8833 99 18.8833H55.5C53.2909 18.8833 51.5 17.0925 51.5 14.8833V8.58334Z" fill="#1D728F"/>
<rect x="15.4492" y="30.9" width="51.5" height="6.4375" rx="2" fill="#1D728F"/>
<rect x="15.4492" y="54.075" width="51.5" height="6.4375" rx="2" fill="#1D728F"/>
<rect x="15.4492" y="78.5375" width="92.7" height="6.4375" rx="2" fill="#1D728F"/>
<rect x="15.4492" y="103" width="83.6875" height="6.4375" rx="2" fill="#1D728F"/>
<rect x="179.047" y="191.046" width="21.2132" height="12.6629" transform="rotate(-45 179.047 191.046)" fill="#75A4B5"/>
<path d="M122.835 137.56L176.209 191L185.104 182.093L194 173.187L140.626 119.747C138.135 118.5 134.074 116.729 129.983 115.314C124.333 113.361 118.624 112.087 116.905 113.809C115.206 115.51 116.102 120.781 117.92 126.276C119.276 130.376 121.146 134.6 122.835 137.56Z" fill="#75A4B5"/>
<path d="M194 173.187L185.104 182.093L176.209 191L122.835 137.56M194 173.187L140.626 119.747M194 173.187L202.409 181.465C204.388 183.413 204.4 186.6 202.437 188.563L191.536 199.464C189.583 201.417 186.417 201.417 184.464 199.464L176 191M122.835 137.56L134 137V131H143L140.626 119.747M122.835 137.56C121.146 134.6 119.276 130.376 117.92 126.276M140.626 119.747C138.135 118.5 134.074 116.729 129.983 115.314M129.983 115.314C124.333 113.361 118.624 112.087 116.905 113.809C115.206 115.51 116.102 120.781 117.92 126.276M129.983 115.314L117.92 126.276" stroke="#1D728F" stroke-width="5"/>
</svg>
