<svg width="400" height="400" viewBox="0 0 400 400" fill="none" xmlns="http://www.w3.org/2000/svg">
<path d="M200.009 200.001C236.842 200.001 266.676 170.084 266.676 133.334C266.676 96.5006 236.842 66.6672 200.009 66.6672C163.176 66.6672 133.342 96.5006 133.342 133.334C133.342 170.084 163.176 200.001 200.009 200.001ZM200.009 233.334C155.592 233.334 66.6758 255.584 66.6758 300.001V313.334C66.6758 324.38 75.6301 333.334 86.6758 333.334H313.342C324.388 333.334 333.342 324.38 333.342 313.334V300.001C333.342 255.584 244.426 233.334 200.009 233.334Z" fill="#D9E5F0"/>
<path d="M186.791 149.176L170.256 132.307L164.625 138.011L186.791 160.625L234.375 112.079L228.784 106.375L186.791 149.176Z" fill="#1D7290"/>
</svg>
