<svg width="206" height="242" viewBox="0 0 206 242" fill="none" xmlns="http://www.w3.org/2000/svg">
<g clip-path="url(#clip0_4_29)">
<path fill-rule="evenodd" clip-rule="evenodd" d="M0 53.4651C0 36.1121 14.4823 22.6745 32.4625 14.0782C50.9708 5.22945 75.9218 0 103 0C130.078 0 155.03 5.22945 173.538 14.0782C191.518 22.6745 206 36.1121 206 53.4651V188.535C206 205.888 191.518 219.325 173.538 227.921C155.03 236.771 130.078 242 103 242C75.9218 242 50.9708 236.771 32.4625 227.921C14.4823 219.325 0 205.888 0 188.535V53.4651ZM17.6571 53.4651C17.6571 45.9524 24.2558 36.8784 40.359 29.1795C55.9341 21.7331 78.0687 16.8837 103 16.8837C127.932 16.8837 150.066 21.7331 165.64 29.1795C181.744 36.8784 188.343 45.9524 188.343 53.4651C188.343 60.9778 181.744 70.0518 165.64 77.7508C150.066 85.1972 127.932 90.0465 103 90.0465C78.0687 90.0465 55.9341 85.1972 40.359 77.7508C24.2558 70.0518 17.6571 60.9778 17.6571 53.4651ZM17.6571 188.535C17.6571 196.047 24.2558 205.121 40.359 212.82C55.9341 220.267 78.0687 225.116 103 225.116C127.932 225.116 150.066 220.267 165.64 212.82C181.744 205.121 188.343 196.047 188.343 188.535V151.472C183.909 154.854 178.877 157.834 173.538 160.386C155.03 169.236 130.078 174.465 103 174.465C75.9218 174.465 50.9708 169.236 32.4625 160.386C27.123 157.834 22.092 154.854 17.6571 151.472V188.535ZM188.343 83.9371V121C188.343 128.512 181.744 137.587 165.64 145.286C150.066 152.732 127.932 157.581 103 157.581C78.0687 157.581 55.9341 152.732 40.359 145.286C24.2558 137.587 17.6571 128.512 17.6571 121V83.9371C22.092 87.3195 27.123 90.2992 32.4625 92.852C50.9708 101.701 75.9218 106.93 103 106.93C130.078 106.93 155.03 101.701 173.538 92.852C178.877 90.2992 183.909 87.3195 188.343 83.9371Z" fill="white" fill-opacity="0.3"/>
</g>
<defs>
<clipPath id="clip0_4_29">
<rect width="206" height="242" fill="white"/>
</clipPath>
</defs>
</svg>
