<svg viewBox="0 0 154 154" fill="none" xmlns="http://www.w3.org/2000/svg">
<path d="M76.669 114.665C84.3672 114.665 90.6024 108.413 90.6024 100.732C90.6024 93.034 84.3672 86.7988 76.669 86.7988C68.9709 86.7988 62.7357 93.034 62.7357 100.732C62.7357 108.413 68.9709 114.665 76.669 114.665Z" fill="#79ADBF"/>
<path d="M34.8667 114.665C42.5648 114.665 48.8 108.413 48.8 100.732C48.8 93.034 42.5648 86.7988 34.8667 86.7988C27.1685 86.7988 20.9333 93.034 20.9333 100.732C20.9333 108.413 27.1685 114.665 34.8667 114.665Z" fill="#79ADBF"/>
<path d="M118.469 114.667C126.167 114.667 132.402 108.414 132.402 100.733C132.402 93.0351 126.167 86.7999 118.469 86.7999C110.771 86.7999 104.536 93.0351 104.536 100.733C104.536 108.414 110.771 114.667 118.469 114.667Z" fill="#79ADBF"/>
<path d="M55.7678 142.532H104.536L140.336 142.533C143.649 142.533 146.336 139.847 146.336 136.533V135.567C146.336 126.283 127.752 121.633 118.469 121.633C112.849 121.633 103.82 123.338 97.57 126.742C91.3196 123.337 82.2896 121.632 76.669 121.632C71.0484 121.632 62.0183 123.337 55.7678 126.743C49.5174 123.337 40.4873 121.632 34.8667 121.632C25.5836 121.632 7 126.282 7 135.565V136.532C7 139.846 9.68629 142.532 13 142.532H55.7678Z" fill="#79ADBF"/>
<path d="M86.8046 81.1582C86.1501 81.1582 85.4956 81.0647 84.8411 80.9089C82.9087 80.3791 81.2881 79.1636 80.2596 77.4494L79.8856 76.8261C78.0467 73.6471 75.5222 73.6471 73.6834 76.8261L73.3406 77.4182C72.3121 79.1636 70.6914 80.4102 68.7591 80.9089C66.7956 81.4387 64.7697 81.1582 63.0556 80.1297L57.6949 77.0442C55.7937 75.9534 54.4224 74.1769 53.8302 72.0264C53.2692 69.8759 53.5497 67.6631 54.6406 65.7619C55.5444 64.1724 55.7937 62.7387 55.2639 61.8349C54.7341 60.9311 53.3939 60.4012 51.5551 60.4012C47.0047 60.4012 43.2959 56.6924 43.2959 52.1421V46.6567C43.2959 42.1064 47.0047 38.3976 51.5551 38.3976C53.3939 38.3976 54.7341 37.8677 55.2639 36.9639C55.7937 36.0601 55.5756 34.6264 54.6406 33.0369C53.5497 31.1357 53.2692 28.8917 53.8302 26.7724C54.3912 24.6219 55.7626 22.8454 57.6949 21.7546L63.0867 18.6691C66.6086 16.5809 71.2524 17.7964 73.3717 21.3806L73.7457 22.0039C75.5846 25.1829 78.1091 25.1829 79.9479 22.0039L80.2907 21.4117C82.4101 17.7964 87.0539 16.5809 90.6069 18.7002L95.9676 21.7857C97.8687 22.8766 99.2401 24.6531 99.8322 26.8036C100.393 28.9541 100.113 31.1669 99.0219 33.0681C98.1181 34.6576 97.8687 36.0912 98.3986 36.9951C98.9284 37.8989 100.269 38.4287 102.107 38.4287C106.658 38.4287 110.367 42.1376 110.367 46.6879V52.1732C110.367 56.7236 106.658 60.4324 102.107 60.4324C100.269 60.4324 98.9284 60.9622 98.3986 61.8661C97.8687 62.7699 98.0869 64.2036 99.0219 65.7931C100.113 67.6942 100.424 69.9382 99.8322 72.0576C99.2712 74.2081 97.8999 75.9846 95.9676 77.0754L90.5757 80.1609C89.3914 80.8154 88.1136 81.1582 86.8046 81.1582ZM76.8001 69.6266C79.5739 69.6266 82.1607 71.3719 83.9372 74.4574L84.2801 75.0496C84.6541 75.7041 85.2774 76.1716 86.0254 76.3586C86.7734 76.5456 87.5214 76.4521 88.1447 76.0781L93.5366 72.9614C94.3469 72.4939 94.9702 71.7147 95.2196 70.7797C95.4689 69.8447 95.3442 68.8786 94.8767 68.0682C93.1002 65.0139 92.8821 61.8661 94.2534 59.4662C95.6247 57.0664 98.4609 55.6951 102.014 55.6951C104.009 55.6951 105.598 54.1056 105.598 52.1109V46.6256C105.598 44.6621 104.009 43.0414 102.014 43.0414C98.4609 43.0414 95.6247 41.6701 94.2534 39.2702C92.8821 36.8704 93.1002 33.7226 94.8767 30.6682C95.3442 29.8579 95.4689 28.8917 95.2196 27.9567C94.9702 27.0217 94.3781 26.2737 93.5677 25.7751L88.1759 22.6896C86.8357 21.8792 85.0592 22.3467 84.2489 23.7181L83.9061 24.3102C82.1296 27.3957 79.5427 29.1411 76.7689 29.1411C73.9951 29.1411 71.4082 27.3957 69.6317 24.3102L69.2889 23.6869C68.5097 22.3779 66.7644 21.9104 65.4242 22.6896L60.0324 25.8062C59.2221 26.2737 58.5987 27.0529 58.3494 27.9879C58.1001 28.9229 58.2247 29.8891 58.6922 30.6994C60.4687 33.7537 60.6869 36.9016 59.3156 39.3014C57.9442 41.7012 55.1081 43.0726 51.5551 43.0726C49.5604 43.0726 47.9709 44.6621 47.9709 46.6567V52.1421C47.9709 54.1056 49.5604 55.7262 51.5551 55.7262C55.1081 55.7262 57.9442 57.0976 59.3156 59.4974C60.6869 61.8972 60.4687 65.0451 58.6922 68.0994C58.2247 68.9097 58.1001 69.8759 58.3494 70.8109C58.5987 71.7459 59.1909 72.4939 60.0012 72.9926L65.3931 76.0781C66.0476 76.4832 66.8267 76.5767 67.5436 76.3897C68.2916 76.2027 68.9149 75.7041 69.3201 75.0496L69.6629 74.4574C71.4394 71.4031 74.0262 69.6266 76.8001 69.6266Z" fill="#79ADBF"/>
<path fill-rule="evenodd" clip-rule="evenodd" d="M76.8001 69.6266C79.5739 69.6266 82.1607 71.3719 83.9372 74.4574L84.2801 75.0496C84.6541 75.7041 85.2774 76.1716 86.0254 76.3586C86.7734 76.5456 87.5214 76.4521 88.1447 76.0781L93.5366 72.9614C94.3469 72.4939 94.9702 71.7147 95.2196 70.7797C95.4689 69.8447 95.3442 68.8786 94.8767 68.0682C93.1002 65.0139 92.8821 61.8661 94.2534 59.4662C95.6247 57.0664 98.4609 55.6951 102.014 55.6951C104.009 55.6951 105.598 54.1056 105.598 52.1109V46.6256C105.598 44.6621 104.009 43.0414 102.014 43.0414C98.4609 43.0414 95.6247 41.6701 94.2534 39.2702C92.8821 36.8704 93.1002 33.7226 94.8767 30.6682C95.3442 29.8579 95.4689 28.8917 95.2196 27.9567C94.9702 27.0217 94.3781 26.2737 93.5677 25.7751L88.1759 22.6896C86.8357 21.8792 85.0592 22.3467 84.2489 23.7181L83.9061 24.3102C82.1296 27.3957 79.5427 29.1411 76.7689 29.1411C73.9951 29.1411 71.4082 27.3957 69.6317 24.3102L69.2889 23.6869C68.5097 22.3779 66.7644 21.9104 65.4242 22.6896L60.0324 25.8062C59.2221 26.2737 58.5987 27.0529 58.3494 27.9879C58.1001 28.9229 58.2247 29.8891 58.6922 30.6994C60.4687 33.7537 60.6869 36.9016 59.3156 39.3014C57.9442 41.7012 55.1081 43.0726 51.5551 43.0726C49.5604 43.0726 47.9709 44.6621 47.9709 46.6567V52.1421C47.9709 54.1056 49.5604 55.7262 51.5551 55.7262C55.1081 55.7262 57.9442 57.0976 59.3156 59.4974C60.6869 61.8972 60.4687 65.0451 58.6922 68.0994C58.2247 68.9097 58.1001 69.8759 58.3494 70.8109C58.5987 71.7459 59.1909 72.4939 60.0012 72.9926L65.3931 76.0781C66.0476 76.4832 66.8267 76.5767 67.5436 76.3897C68.2916 76.2027 68.9149 75.7041 69.3201 75.0496L69.6629 74.4574C71.4394 71.4031 74.0262 69.6266 76.8001 69.6266ZM65.1125 49.3999C65.1125 55.8514 70.3485 61.0874 76.8 61.0874C83.2515 61.0874 88.4875 55.8514 88.4875 49.3999C88.4875 42.9484 83.2515 37.7124 76.8 37.7124C70.3485 37.7124 65.1125 42.9484 65.1125 49.3999Z" fill="#79ADBF"/>
</svg>
