<svg viewBox="0 0 154 154" fill="none" xmlns="http://www.w3.org/2000/svg">
<path d="M96.2499 145.979H57.7499C22.9074 145.979 8.02075 131.093 8.02075 96.2502V57.7502C8.02075 22.9077 22.9074 8.021 57.7499 8.021H89.8333C92.4641 8.021 94.6458 10.2027 94.6458 12.8335C94.6458 15.4643 92.4641 17.646 89.8333 17.646H57.7499C28.1691 17.646 17.6458 28.1693 17.6458 57.7502V96.2502C17.6458 125.831 28.1691 136.354 57.7499 136.354H96.2499C125.831 136.354 136.354 125.831 136.354 96.2502V64.1668C136.354 61.536 138.536 59.3543 141.167 59.3543C143.797 59.3543 145.979 61.536 145.979 64.1668V96.2502C145.979 131.093 131.092 145.979 96.2499 145.979Z" fill="#79ADBF"/>
<path d="M58.6906 113.472C58.6906 116.786 56.0044 119.472 52.6906 119.472H52.0471C48.7333 119.472 46.0471 116.786 46.0471 113.472V113.078C46.0471 109.764 48.7333 107.078 52.0471 107.078H52.6906C56.0044 107.078 58.6906 109.764 58.6906 113.078V113.472ZM58.1889 95.4722C58.1889 102.63 45.8581 102.63 45.8581 95.4722V95.4432C45.8581 88.6263 45.8581 82.739 48.6903 78.6158C50.8937 75.8783 53.6353 73.6023 56.7527 71.9228C58.1603 71.0386 59.4879 70.2 60.6048 69.3282C65.4994 65.6143 67.7002 59.4207 66.2185 53.5295C63.874 48.0353 57.9086 44.9178 51.9485 46.0721C45.9884 47.2263 41.6806 52.3335 41.6436 58.2889H29C29 44.5984 40.3215 33.5 54.2872 33.5C64.0028 33.4715 72.8877 38.8667 77.1889 47.4066C81.0524 56.1081 79.5251 66.2066 73.2526 73.4349C71.3455 75.5067 69.2049 77.3598 66.8718 78.9587C64.8302 80.3391 62.9677 81.9582 61.3254 83.7801C59.0045 87.2279 57.8762 91.4722 58.1889 95.4722Z" fill="#79ADBF"/>
<path d="M141.167 68.9791H115.5C93.5549 68.9791 85.0208 60.445 85.0208 38.5V12.8333C85.0208 10.9083 86.1758 9.11163 87.9724 8.4058C89.7691 7.6358 91.8224 8.08497 93.2341 9.43247L144.567 60.7658C145.915 62.1133 146.364 64.2308 145.594 66.0275C144.824 67.8241 143.092 68.9791 141.167 68.9791ZM94.6458 24.4475V38.5C94.6458 55.055 98.9449 59.3541 115.5 59.3541H129.552L94.6458 24.4475Z" fill="#79ADBF"/>
</svg>
