<svg viewBox="0 0 125 150" fill="none" xmlns="http://www.w3.org/2000/svg">
<path d="M95.4571 5.36922C94.8271 4.73925 93.75 5.18542 93.75 6.07632V30.2496C93.75 30.8019 94.1977 31.2496 94.75 31.2496H118.923C119.814 31.2496 120.26 30.1725 119.63 29.5425L95.4571 5.36922Z" fill="#1D728F"/>
<path d="M86.25 43.75C83.4886 43.75 81.25 41.5114 81.25 38.75V5C81.25 2.23858 79.0114 0 76.25 0H18.75C13.7772 0 9.00806 1.97544 5.49175 5.49175C1.97544 9.00805 0 13.7772 0 18.75V140C0 145.523 4.47715 150 10 150H115C120.523 150 125 145.523 125 140V48.75C125 45.9886 122.761 43.75 120 43.75H86.25Z" fill="#1D728F"/>
</svg>
