<svg width="38" height="48" viewBox="0 0 38 48" fill="none" xmlns="http://www.w3.org/2000/svg">
<g clip-path="url(#clip0_160_9)">
<path fill-rule="evenodd" clip-rule="evenodd" d="M6.99833 6.62672H12.9992V41.3732H6.99833C3.68417 41.3732 0.997501 39.1508 0.997501 36.4094V11.5905C0.997501 8.84908 3.68417 6.62672 6.99833 6.62672ZM21.107 1.69605L33.1087 5.41889C35.4508 6.14541 37.0025 7.9975 37.0025 10.0666V37.9333C37.0025 40.0024 35.4508 41.8545 33.1087 42.581L21.107 46.3039C18.0039 47.2664 14.5449 45.9659 13.3812 43.399C13.1286 42.8417 12.9992 42.2513 12.9992 41.6561V6.34379C12.9992 3.60237 15.6858 1.38 19 1.38C19.7196 1.38 20.4333 1.48706 21.107 1.69605Z" stroke="#FBFDFF" stroke-opacity="0.95" stroke-width="3" stroke-linecap="round" stroke-linejoin="round"/>
<path d="M19 26.4818C20.6571 26.4818 22.0004 25.3707 22.0004 24C22.0004 22.6292 20.6571 21.5181 19 21.5181C17.3429 21.5181 15.9996 22.6292 15.9996 24C15.9996 25.3707 17.3429 26.4818 19 26.4818Z" fill="#FBFDFF" fill-opacity="0.95"/>
</g>
<defs>
<clipPath id="clip0_160_9">
<rect width="38" height="48" fill="white"/>
</clipPath>
</defs>
</svg>
