<svg width="44" height="44" viewBox="0 0 44 44" fill="none" xmlns="http://www.w3.org/2000/svg">
<g clip-path="url(#clip0_161_338)">
<path d="M31.4945 28.3844L34.7548 31.6448C34.8978 31.7886 35.0856 31.8597 35.2733 31.8597C35.4603 31.8597 35.6481 31.7885 35.7918 31.6448C36.0778 31.3588 36.0778 30.8946 35.7918 30.6079L32.3575 27.1737C34.152 24.4156 35.1999 21.1295 35.1999 17.6007C35.1999 7.8965 27.3041 0.000732422 17.5999 0.000732422C7.89568 0.000732422 0 7.89658 0 17.6008C0 27.3051 7.89577 35.2008 17.6 35.2008C23.243 35.2008 28.2715 32.5278 31.4945 28.3844ZM17.6 33.7341C8.70392 33.7341 1.4667 26.4969 1.4667 17.6008C1.4667 8.70474 8.70392 1.46743 17.6 1.46743C26.4961 1.46743 33.7333 8.70465 33.7333 17.6007C33.7333 26.4968 26.4961 33.7341 17.6 33.7341Z" fill="#E7EDF3"/>
<path d="M17.6 2.93408C9.51275 2.93408 2.93329 9.51354 2.93329 17.6008C2.93329 25.688 9.51275 32.2674 17.6 32.2674C25.6872 32.2674 32.2667 25.6879 32.2667 17.6007C32.2667 9.51346 25.6872 2.93408 17.6 2.93408ZM17.6 30.8008C10.3217 30.8008 4.39998 24.8791 4.39998 17.6008C4.39998 10.3225 10.3217 4.40078 17.6 4.40078C24.8783 4.40078 30.8 10.3225 30.8 17.6008C30.8 24.8791 24.8783 30.8008 17.6 30.8008Z" fill="#E7EDF3"/>
<path d="M42.9257 37.7419L37.7864 32.6034C37.6493 32.4655 37.4631 32.3885 37.268 32.3885H37.2673C37.073 32.3885 36.886 32.4663 36.7481 32.6049L34.6801 34.6839C34.3941 34.9713 34.3955 35.4348 34.683 35.7208C34.9704 36.0068 35.4347 36.006 35.7199 35.7179L37.2694 34.1602L41.8887 38.7788C42.3038 39.1945 42.5333 39.7468 42.5333 40.3349C42.5333 40.9216 42.3038 41.4745 41.8887 41.8896C41.0314 42.7469 39.6366 42.7483 38.7779 41.8904L30.0879 33.2004C29.8019 32.9144 29.3377 32.9144 29.051 33.2004C28.765 33.4872 28.765 33.9513 29.051 34.2381L37.741 42.9273C38.4552 43.6423 39.3939 43.9995 40.3326 43.9995C41.2713 43.9995 42.2114 43.6416 42.9257 42.9273C43.6179 42.2342 44 41.3138 44 40.3348C44 39.3552 43.6179 38.4341 42.9257 37.7419Z" fill="#E7EDF3"/>
</g>
<defs>
<clipPath id="clip0_161_338">
<rect width="44" height="44" fill="white"/>
</clipPath>
</defs>
</svg>
