<svg viewBox="0 0 154 154" fill="none" xmlns="http://www.w3.org/2000/svg">
<path fill-rule="evenodd" clip-rule="evenodd" d="M58.8534 117.835C62.6122 114.076 68.7064 114.076 72.4653 117.835C76.2242 121.594 76.2242 127.687 72.4653 131.446L63.3907 140.521C49.6084 154.303 27.263 154.303 13.4807 140.521C-0.301515 126.738 -0.301515 104.393 13.4807 90.6107L45.2416 58.85C59.0238 45.0678 81.3691 45.0678 95.1514 58.85C98.9103 62.6088 98.9103 68.7029 95.1514 72.4618C91.3925 76.2207 85.2986 76.2207 81.5397 72.4618C75.2751 66.1972 65.1182 66.1972 58.8534 72.4618L27.0925 104.222C20.8279 110.488 20.8279 120.645 27.0925 126.909C33.3572 133.174 43.5142 133.174 49.7789 126.909L58.8534 117.835ZM95.1514 36.1637C91.3925 39.9225 85.2986 39.9225 81.5397 36.1637C77.7809 32.4049 77.7809 26.3106 81.5397 22.5519L90.6142 13.4773C104.397 -0.30493 126.742 -0.30493 140.524 13.4773C154.307 27.2596 154.307 49.605 140.524 63.3873L108.763 95.1479C94.9814 108.93 72.636 108.93 58.8534 95.1479C55.0946 91.389 55.0946 85.2951 58.8534 81.5362C62.6122 77.7774 68.7064 77.7774 72.4653 81.5362C78.7299 87.8008 88.8868 87.8008 95.1514 81.5362L126.913 49.7755C133.177 43.5108 133.177 33.3538 126.913 27.0892C120.648 20.8244 110.49 20.8244 104.226 27.0892L95.1514 36.1637Z" fill="#1D728F"/>
</svg>
