<svg width="358" height="397" viewBox="0 0 358 397" fill="none" xmlns="http://www.w3.org/2000/svg">
<path d="M134.009 263.001C170.842 263.001 200.676 233.084 200.676 196.334C200.676 159.501 170.842 129.667 134.009 129.667C97.1758 129.667 67.3424 159.501 67.3424 196.334C67.3424 233.084 97.1758 263.001 134.009 263.001ZM134.009 296.334C89.5924 296.334 0.675781 318.584 0.675781 363.001V376.334C0.675781 387.38 9.63009 396.334 20.6758 396.334H247.342C258.388 396.334 267.342 387.38 267.342 376.334V363.001C267.342 318.584 178.426 296.334 134.009 296.334Z" fill="#D9E5F0"/>
<path d="M210 12V140.757C210 143.43 213.231 144.769 215.121 142.879L231.071 126.929C232.946 125.054 235.49 124 238.142 124H346C351.523 124 356 119.523 356 114V12C356 6.47715 351.523 2 346 2H220C214.477 2 210 6.47715 210 12Z" fill="#D9E5F0"/>
<path d="M249.196 87V74.0801L249.401 73.3623V49.8467H249.128L237.678 69.2949H252.512L253.674 69.0898H263.825V76.4385H228.859V69.6709L250.017 37.2344H257.844V87H249.196ZM267.004 70.5938V53.6406C267.004 48.1719 268.405 43.945 271.208 40.96C274.034 37.9749 277.953 36.4824 282.966 36.4824C287.956 36.4824 291.864 37.9635 294.689 40.9258C297.538 43.888 298.962 48.1263 298.962 53.6406V70.5938C298.962 76.1764 297.504 80.4375 294.587 83.377C291.67 86.3164 287.797 87.7747 282.966 87.752C277.93 87.7292 274.011 86.2594 271.208 83.3428C268.405 80.4033 267.004 76.1536 267.004 70.5938ZM276.267 72.2002C276.267 75.0257 276.825 77.2132 277.941 78.7627C279.058 80.3122 280.733 81.0869 282.966 81.0869C285.222 81.0869 286.908 80.3122 288.024 78.7627C289.141 77.2132 289.699 75.0257 289.699 72.2002V52.1709C289.699 49.3226 289.141 47.1237 288.024 45.5742C286.908 44.0247 285.222 43.25 282.966 43.25C280.733 43.25 279.058 44.0247 277.941 45.5742C276.825 47.1237 276.267 49.3226 276.267 52.1709V72.2002ZM322.067 87V74.0801L322.272 73.3623V49.8467H321.999L310.549 69.2949H325.383L326.545 69.0898H336.696V76.4385H301.73V69.6709L322.888 37.2344H330.715V87H322.067Z" fill="#1D728F"/>
</svg>
