<svg width="25" height="26" viewBox="0 0 25 26" fill="none" xmlns="http://www.w3.org/2000/svg">
<g clip-path="url(#clip0_161_21)">
<path d="M12.5 16.25C14.2259 16.25 15.625 14.7949 15.625 13C15.625 11.2051 14.2259 9.75 12.5 9.75C10.7741 9.75 9.375 11.2051 9.375 13C9.375 14.7949 10.7741 16.25 12.5 16.25Z" stroke="#E7EDF3" stroke-width="2"/>
<path d="M14.7256 0.9973C14.2686 0.8125 13.6896 0.8125 12.5313 0.8125C11.373 0.8125 10.7939 0.8125 10.337 0.9973C9.72788 1.2437 9.24394 1.71633 8.99164 2.31119C8.87647 2.58274 8.83139 2.89854 8.81375 3.3592C8.78783 4.03616 8.43235 4.66278 7.83161 5.0015C7.23089 5.34021 6.49749 5.32756 5.88423 5.011C5.46692 4.79559 5.16434 4.6758 4.86594 4.63744C4.21228 4.5534 3.55121 4.72639 3.02815 5.11836C2.63585 5.41233 2.34628 5.90216 1.76714 6.88179C1.18801 7.86144 0.898437 8.35125 0.833891 8.83004C0.747842 9.4684 0.924974 10.114 1.32633 10.6249C1.50952 10.858 1.76698 11.054 2.16658 11.2992C2.75401 11.6597 3.13197 12.2738 3.13194 12.9513C3.1319 13.6287 2.75394 14.2427 2.16656 14.6031C1.76692 14.8484 1.50942 15.0445 1.32621 15.2776C0.92485 15.7884 0.747718 16.434 0.833779 17.0724C0.898313 17.5511 1.18788 18.041 1.76702 19.0206C2.34617 20.0002 2.63574 20.4901 3.02802 20.784C3.55108 21.176 4.21215 21.349 4.86582 21.265C5.16419 21.2266 5.46676 21.1068 5.88404 20.8915C6.49735 20.5749 7.23079 20.5622 7.83156 20.9009C8.43232 21.2397 8.78783 21.8663 8.81375 22.5434C8.8314 23.004 8.87647 23.3198 8.99164 23.5914C9.24394 24.1861 9.72788 24.6588 10.337 24.9052C10.7939 25.09 11.373 25.09 12.5313 25.09C13.6896 25.09 14.2686 25.09 14.7256 24.9052C15.3346 24.6588 15.8186 24.1861 16.0708 23.5914C16.186 23.3198 16.2311 23.004 16.2488 22.5433C16.2746 21.8663 16.6301 21.2397 17.2308 20.9009C17.8316 20.5621 18.565 20.5749 19.1784 20.8915C19.5957 21.1068 19.8982 21.2265 20.1965 21.2648C20.8502 21.349 21.5113 21.176 22.0343 20.784C22.4266 20.49 22.7162 20.0002 23.2953 19.0205C23.8745 18.0409 24.1641 17.5511 24.2286 17.0724C24.3146 16.434 24.1375 15.7883 23.7362 15.2775C23.553 15.0443 23.2954 14.8483 22.8958 14.6031C22.3085 14.2427 21.9305 13.6286 21.9305 12.9511C21.9305 12.2737 22.3085 11.6598 22.8958 11.2994C23.2955 11.0541 23.5531 10.8582 23.7363 10.6249C24.1376 10.1141 24.3148 9.46849 24.2287 8.83011C24.1642 8.35133 23.8746 7.86151 23.2954 6.88188C22.7163 5.90224 22.4267 5.41242 22.0344 5.11844C21.5114 4.72647 20.8503 4.55348 20.1966 4.63753C19.8983 4.67589 19.5958 4.79566 19.1784 5.01105C18.5651 5.32762 17.8317 5.34028 17.231 5.00153C16.6301 4.6628 16.2746 4.03614 16.2488 3.35914C16.2311 2.89852 16.186 2.58273 16.0708 2.31119C15.8186 1.71633 15.3346 1.2437 14.7256 0.9973Z" stroke="#E7EDF3" stroke-width="2"/>
</g>
<defs>
<clipPath id="clip0_161_21">
<rect width="25" height="26" fill="white"/>
</clipPath>
</defs>
</svg>
