<svg viewBox="0 0 24 24" fill="none" xmlns="http://www.w3.org/2000/svg">
<path d="M16.4994 6V17.5C16.4994 19.71 14.7094 21.5 12.4994 21.5C10.2894 21.5 8.49939 19.71 8.49939 17.5V5C8.49939 3.62 9.61939 2.5 10.9994 2.5C12.3794 2.5 13.4994 3.62 13.4994 5V15.5C13.4994 16.05 13.0544 16.5 12.4994 16.5C11.9444 16.5 11.4994 16.05 11.4994 15.5V6H9.99939V15.5C9.99939 16.88 11.1194 18 12.4994 18C13.8794 18 14.9994 16.88 14.9994 15.5V5C14.9994 2.79 13.2094 1 10.9994 1C8.78939 1 6.99939 2.79 6.99939 5V17.5C6.99939 20.54 9.46439 23 12.4994 23C15.5344 23 17.9994 20.54 17.9994 17.5V6H16.4994Z" fill="#015470"/>
</svg>
