<svg viewBox="0 0 154 154" fill="none" xmlns="http://www.w3.org/2000/svg">
<path d="M109.083 139.562H44.9166C16.6191 139.562 8.02075 130.964 8.02075 102.667V51.3333C8.02075 23.0358 16.6191 14.4375 44.9166 14.4375H109.083C137.381 14.4375 145.979 23.0358 145.979 51.3333V102.667C145.979 130.964 137.381 139.562 109.083 139.562ZM44.9166 24.0625C21.9449 24.0625 17.6458 28.4258 17.6458 51.3333V102.667C17.6458 125.574 21.9449 129.938 44.9166 129.938H109.083C132.055 129.938 136.354 125.574 136.354 102.667V51.3333C136.354 28.4258 132.055 24.0625 109.083 24.0625H44.9166Z" fill="#79ADBF"/>
<path d="M121.917 56.146H89.8333C87.2024 56.146 85.0208 53.9643 85.0208 51.3335C85.0208 48.7027 87.2024 46.521 89.8333 46.521H121.917C124.547 46.521 126.729 48.7027 126.729 51.3335C126.729 53.9643 124.547 56.146 121.917 56.146Z" fill="#79ADBF"/>
<path d="M121.917 81.8125H96.25C93.6192 81.8125 91.4375 79.6308 91.4375 77C91.4375 74.3692 93.6192 72.1875 96.25 72.1875H121.917C124.548 72.1875 126.729 74.3692 126.729 77C126.729 79.6308 124.548 81.8125 121.917 81.8125Z" fill="#79ADBF"/>
<path d="M121.917 107.479H109.083C106.452 107.479 104.271 105.297 104.271 102.667C104.271 100.036 106.452 97.854 109.083 97.854H121.917C124.547 97.854 126.729 100.036 126.729 102.667C126.729 105.297 124.547 107.479 121.917 107.479Z" fill="#79ADBF"/>
<path d="M54.5412 77.2567C45.4937 77.2567 38.1145 69.8775 38.1145 60.83C38.1145 51.7825 45.4937 44.4033 54.5412 44.4033C63.5887 44.4033 70.9678 51.7825 70.9678 60.83C70.9678 69.8775 63.5887 77.2567 54.5412 77.2567ZM54.5412 54.0283C50.8195 54.0283 47.7395 57.1083 47.7395 60.83C47.7395 64.5516 50.8195 67.6317 54.5412 67.6317C58.2628 67.6317 61.3428 64.5516 61.3428 60.83C61.3428 57.1083 58.2628 54.0283 54.5412 54.0283Z" fill="#79ADBF"/>
<path d="M76.9994 109.595C74.5611 109.595 72.4436 107.734 72.1869 105.232C71.4811 98.3015 65.8986 92.719 58.9044 92.0773C55.9527 91.8207 53.0011 91.8207 50.0494 92.0773C43.0552 92.719 37.4727 98.2373 36.7669 105.232C36.5102 107.862 34.1361 109.852 31.5052 109.531C28.8744 109.274 26.9494 106.9 27.2061 104.269C28.3611 92.719 37.5369 83.5432 49.1511 82.5165C52.6802 82.1957 56.2736 82.1957 59.8027 82.5165C71.3527 83.6073 80.5927 92.7832 81.7477 104.269C82.0044 106.9 80.0794 109.274 77.4486 109.531C77.3202 109.595 77.1277 109.595 76.9994 109.595Z" fill="#79ADBF"/>
</svg>
