<svg viewBox="0 0 154 154" fill="none" xmlns="http://www.w3.org/2000/svg">
<path d="M108.667 134.5H44.5V121.667H57.3333V115.25H18.8333C11.7457 115.25 6 109.504 6 102.417V31.8333C6 24.7457 11.7457 19 18.8333 19H134.333C141.421 19 147.167 24.7457 147.167 31.8333V102.417C147.167 109.504 141.421 115.25 134.333 115.25H95.8333V121.667H108.667V134.5ZM18.8333 31.8333V102.417H134.333V31.8333H18.8333Z" fill="#79ADBF"/>
<path d="M53.9216 90.0784L55.8431 92L73.5497 74.2934C72.0758 73.2223 70.7777 71.9242 69.7066 70.4503L52 88.1569L53.9216 90.0784Z" fill="#79ADBF"/>
<path fill-rule="evenodd" clip-rule="evenodd" d="M101 60.2941C101 50.7428 93.2572 43 83.7059 43C74.1546 43 66.4118 50.7428 66.4118 60.2941C66.4118 64.0891 67.6341 67.5986 69.7066 70.4503C70.7777 71.9242 72.0758 73.2223 73.5497 74.2934C76.4014 76.3659 79.9109 77.5882 83.7059 77.5882C93.2572 77.5882 101 69.8454 101 60.2941ZM94.2745 60.2941C94.2745 54.4572 89.5428 49.7255 83.7059 49.7255C77.869 49.7255 73.1373 54.4572 73.1373 60.2941C73.1373 66.131 77.869 70.8627 83.7059 70.8627C89.5428 70.8627 94.2745 66.131 94.2745 60.2941Z" fill="#79ADBF"/>
</svg>
