<svg viewBox="0 0 154 147" fill="none" xmlns="http://www.w3.org/2000/svg">
<path fill-rule="evenodd" clip-rule="evenodd" d="M122.002 0.875H31.9944C21.3606 0.875 12.707 9.0211 12.707 19.0312V136.125C12.707 141.648 17.1842 146.125 22.707 146.125H131.29C136.812 146.125 141.29 141.648 141.29 136.125V19.0312C141.29 9.0211 132.636 0.875 122.002 0.875ZM38.4235 31.1354H51.2818V43.2396H38.4235V31.1354ZM51.0375 115.865H38.1792V103.76H51.0375V115.865ZM115.573 115.865H63.8957V103.76H115.573V115.865ZM115.573 79.5521H64.14V67.4479H115.573V79.5521ZM115.573 43.2396H64.14V31.1354H115.573V43.2396ZM47.5085 82.2753C47.5085 85.7719 41.3794 85.7719 41.3794 82.2753V82.2612C41.3794 78.9309 41.3794 76.0548 42.7871 74.0405C43.8824 72.7031 45.2451 71.5912 46.7946 70.7707C47.4943 70.3388 48.1542 69.9291 48.7093 69.5032C51.1422 67.6888 52.2361 64.6631 51.4996 61.7851C50.3343 59.101 47.3691 57.578 44.4067 58.1419C41.4442 58.7058 39.3029 61.2008 39.2846 64.1102H33C33 57.422 38.6274 52.0001 45.5691 52.0001C50.3983 51.9861 54.8146 54.6218 56.9525 58.7939C58.8729 63.0448 58.1137 67.9782 54.9959 71.5094C54.048 72.5216 52.984 73.4269 51.8243 74.208C50.8096 74.8824 49.8838 75.6733 49.0675 76.5634C47.9139 78.2478 47.353 80.3212 47.5085 82.2753ZM44.4556 94H44.7755C46.4226 94 47.7579 92.6877 47.7579 91.0688V90.8761C47.7579 89.2573 46.4226 87.945 44.7755 87.945H44.4556C42.8085 87.945 41.4733 89.2573 41.4733 90.8761V91.0688C41.4733 92.6877 42.8086 94 44.4556 94Z" fill="#79ADBF"/>
</svg>
