<svg width="13" height="25" viewBox="0 0 13 25" fill="none" xmlns="http://www.w3.org/2000/svg">
<path d="M3.76562 22.3438C3.76562 21.8021 3.94792 21.3385 4.3125 20.9531C4.67708 20.5573 5.19792 20.3594 5.875 20.3594C6.55208 20.3594 7.06771 20.5573 7.42188 20.9531C7.78646 21.3385 7.96875 21.8021 7.96875 22.3438C7.96875 22.8958 7.78646 23.3698 7.42188 23.7656C7.06771 24.151 6.55208 24.3438 5.875 24.3438C5.19792 24.3438 4.67708 24.151 4.3125 23.7656C3.94792 23.3698 3.76562 22.8958 3.76562 22.3438ZM0.03125 7.21875V6.75C0.03125 4.95833 0.59375 3.54167 1.71875 2.5C2.85417 1.45833 4.39062 0.9375 6.32812 0.9375C8.29688 0.9375 9.83854 1.45833 10.9531 2.5C12.0677 3.54167 12.625 4.92188 12.625 6.64062C12.625 8.08854 12.3073 9.29688 11.6719 10.2656C11.0469 11.224 10.3125 12.099 9.46875 12.8906C8.60417 13.7031 8.04688 14.4427 7.79688 15.1094C7.55729 15.776 7.4375 16.4688 7.4375 17.1875V17.375H4.14062V17.1562C4.14062 15.9271 4.32292 14.9062 4.6875 14.0938C5.0625 13.2812 5.73958 12.401 6.71875 11.4531C7.5625 10.6198 8.19792 9.88542 8.625 9.25C9.0625 8.60417 9.28125 7.77604 9.28125 6.76562C9.28125 5.76562 9.03646 4.97917 8.54688 4.40625C8.06771 3.83333 7.31771 3.54688 6.29688 3.54688C5.28646 3.54688 4.52083 3.83333 4 4.40625C3.47917 4.96875 3.21875 5.78646 3.21875 6.85938V7.21875H0.03125Z" fill="#E7EDF3"/>
</svg>
