<svg width="206" height="206" viewBox="0 0 206 206" fill="none" xmlns="http://www.w3.org/2000/svg">
<path d="M163.2 0H42.8C28.5756 0 17 11.5532 17 25.75V196C17 201.523 21.4772 206 27 206H179C184.523 206 189 201.523 189 196V25.75C189 11.5532 177.424 0 163.2 0ZM51.4 42.9167H68.6V60.0833H51.4V42.9167ZM68.2732 163.083H51.0732V145.917H68.2732V163.083ZM65.4266 120.167C61.7544 120.167 58.0736 118.776 55.27 115.978L42.8 104.021L54.7196 91.6442L65.3922 101.876L87.176 80.5889L99.2074 92.8545L75.48 116.047C72.728 118.793 69.0816 120.175 65.4352 120.175L65.4266 120.167ZM154.6 163.083H85.4732V145.917H154.6V163.083ZM154.6 111.583H102.673L120.234 94.4167H154.6V111.583ZM154.6 60.0833H85.8V42.9167H154.6V60.0833Z" fill="#79ADBF"/>
</svg>
