<svg viewBox="0 0 150 138" fill="none" xmlns="http://www.w3.org/2000/svg">
<path d="M84.375 19.0002L10.7688 102.294C8.44377 101.656 6.21877 100.506 4.36877 98.6814C-0.974983 93.419 -1.47498 84.9689 3.20627 79.1127L34.375 40.8752L84.375 19.0002ZM87.8688 75.2502L128.606 29.5314L133.356 24.3814C138.875 18.8627 138.875 9.9127 133.356 4.39395C127.838 -1.1248 118.888 -1.1248 113.369 4.39395L12.5 117.763V137.75H32.4875L52.7188 115.006C51.675 112.875 50.8125 110.656 50.4063 108.256C49.1125 100.656 50.8875 93.0689 55.3875 86.9002C59.8938 80.7315 66.5313 76.3315 74.0938 75.2502H87.8688ZM150 39.3627L140.55 35.0189L103.438 75.2752L112.494 75.2502L112.613 87.7502H78.1188C69.4875 87.7502 62.4938 94.7439 62.4938 103.375C62.4938 112.006 69.4875 119 78.1188 119H96.8688C102.719 119.1 108.588 119.831 114.213 121.219L119.844 122.619C126.956 124.381 134.256 125.263 141.581 125.238L150.006 125.206L149.988 39.3627H150Z" fill="#00536F"/>
</svg>
