<svg viewBox="0 0 206 206" fill="none" xmlns="http://www.w3.org/2000/svg">
<path fill-rule="evenodd" clip-rule="evenodd" d="M17.6447 17.6447C3 32.2893 3 55.8595 3 103C3 150.14 3 173.711 17.6447 188.355C32.2893 203 55.8595 203 103 203C150.14 203 173.711 203 188.355 188.355C203 173.711 203 150.14 203 103C203 55.8595 203 32.2893 188.355 17.6447C173.711 3 150.14 3 103 3C55.8595 3 32.2893 3 17.6447 17.6447ZM117.881 47.4591C121.882 48.5311 124.256 52.6437 123.184 56.6447L97.302 153.237C96.23 157.238 92.117 159.613 88.116 158.541C84.115 157.468 81.741 153.356 82.8131 149.355L108.695 52.7624C109.767 48.7614 113.88 46.387 117.881 47.4591ZM132.697 67.6967C135.626 64.7678 140.374 64.7678 143.303 67.6967L145.387 69.7801C151.74 76.133 157.038 81.4308 160.678 86.202C164.521 91.238 167.216 96.559 167.216 103C167.216 109.441 164.521 114.762 160.678 119.798C157.038 124.569 151.74 129.867 145.387 136.22L143.303 138.303C140.374 141.232 135.626 141.232 132.697 138.303C129.768 135.374 129.768 130.626 132.697 127.697L134.412 125.981C141.229 119.164 145.797 114.574 148.753 110.699C151.577 106.998 152.216 104.843 152.216 103C152.216 101.157 151.577 99.002 148.753 95.301C145.797 91.426 141.229 86.836 134.412 80.0191L132.697 78.3033C129.768 75.3744 129.768 70.6257 132.697 67.6967ZM62.6986 67.6967C65.6275 64.7678 70.3762 64.7678 73.3052 67.6967C76.2341 70.6257 76.2341 75.3744 73.3052 78.3033L71.5894 80.0191C64.7729 86.836 60.2052 91.426 57.2488 95.301C54.4245 99.002 53.7861 101.157 53.7861 103C53.7861 104.843 54.4245 106.998 57.2488 110.699C60.2052 114.574 64.7729 119.164 71.5894 125.981L73.3052 127.697C76.2341 130.626 76.2341 135.374 73.3052 138.303C70.3762 141.232 65.6275 141.232 62.6986 138.303L60.6151 136.22C54.2617 129.867 48.9638 124.569 45.3235 119.798C41.4811 114.762 38.7861 109.441 38.7861 103C38.7861 96.559 41.4811 91.238 45.3235 86.202C48.9638 81.4308 54.2617 76.1331 60.6151 69.7801L62.6986 67.6967Z" fill="#79ADBF"/>
</svg>
