<svg viewBox="0 0 206 206" fill="none" xmlns="http://www.w3.org/2000/svg">
<path d="M184.818 3H21.1818C11.1818 3 3 11.1818 3 21.1818V184.818C3 194.818 11.1818 203 21.1818 203H184.818C194.818 203 203 194.818 203 184.818V21.1818C203 11.1818 194.818 3 184.818 3ZM39.3636 48.4545C39.3636 45.7273 41.1818 43.9091 43.9091 43.9091H89.3636C92.0909 43.9091 93.9091 45.7273 93.9091 48.4545V93.9091C93.9091 96.6364 92.0909 98.4545 89.3636 98.4545H43.9091C41.1818 98.4545 39.3636 96.6364 39.3636 93.9091V48.4545ZM148.455 166.636C148.455 169.364 146.636 171.182 143.909 171.182H43.9091C41.1818 171.182 39.3636 169.364 39.3636 166.636V157.545C39.3636 154.818 41.1818 153 43.9091 153H143.909C146.636 153 148.455 154.818 148.455 157.545V166.636ZM166.636 130.273C166.636 133 164.818 134.818 162.091 134.818H43.9091C41.1818 134.818 39.3636 133 39.3636 130.273V121.182C39.3636 118.455 41.1818 116.636 43.9091 116.636H162.091C164.818 116.636 166.636 118.455 166.636 121.182V130.273ZM166.636 93.9091C166.636 96.6364 164.818 98.4545 162.091 98.4545H116.636C113.909 98.4545 112.091 96.6364 112.091 93.9091V84.8182C112.091 82.0909 113.909 80.2727 116.636 80.2727H162.091C164.818 80.2727 166.636 82.0909 166.636 84.8182V93.9091ZM166.636 57.5455C166.636 60.2727 164.818 62.0909 162.091 62.0909H116.636C113.909 62.0909 112.091 60.2727 112.091 57.5455V48.4545C112.091 45.7273 113.909 43.9091 116.636 43.9091H162.091C164.818 43.9091 166.636 45.7273 166.636 48.4545V57.5455Z" fill="#00536F"/>
</svg>
