<svg viewBox="0 0 206 206" fill="none" xmlns="http://www.w3.org/2000/svg">
<g clip-path="url(#clip0_1194_11)">
<path d="M103 12.875V25.75H167.375V122.312H180.25V25.75C180.246 22.3365 178.888 19.064 176.475 16.6503C174.061 14.2366 170.788 12.8789 167.375 12.875H103Z" fill="#79ADBF"/>
<path d="M70.8125 45.0625V57.9375H135.188V154.5H148.062V57.9375C148.059 54.524 146.701 51.2515 144.287 48.8378C141.873 46.4241 138.601 45.0664 135.188 45.0625H70.8125Z" fill="#79ADBF"/>
<path d="M38.625 77.25H103C106.413 77.2539 109.686 78.6116 112.1 81.0253C114.513 83.439 115.871 86.7115 115.875 90.125V180.25C115.871 183.663 114.513 186.936 112.1 189.35C109.686 191.763 106.413 193.121 103 193.125H38.625C35.2115 193.121 31.939 191.763 29.5253 189.35C27.1116 186.936 25.7539 183.663 25.75 180.25V90.125C25.7539 86.7115 27.1116 83.439 29.5253 81.0253C31.939 78.6116 35.2115 77.2539 38.625 77.25ZM103 90.125L38.625 90.1173V180.25H103V90.125Z" fill="#79ADBF"/>
</g>
<defs>
<clipPath id="clip0_1194_11">
<rect width="206" height="206" fill="white"/>
</clipPath>
</defs>
</svg>
