<svg viewBox="0 0 206 206" fill="none" xmlns="http://www.w3.org/2000/svg">
<path fill-rule="evenodd" clip-rule="evenodd" d="M102.7 206C59.0008 206 37.1512 206 23.5756 190.916C10 175.832 10 151.554 10 103C10 54.4453 10 30.168 23.5756 15.084C37.1512 -1.22786e-06 59.0008 0 102.7 0C146.399 0 168.249 -1.22786e-06 181.825 15.084C195.4 30.168 195.4 54.4453 195.4 103C195.4 151.554 195.4 175.832 181.825 190.916C168.249 206 146.399 206 102.7 206ZM133.6 41.2H71.8C67.0106 41.2 64.616 41.2 62.6512 41.7264C57.3195 43.155 53.155 47.3195 51.7264 52.6512C51.2 54.616 51.2 57.0106 51.2 61.8C51.2 66.5894 51.2 68.984 51.7264 70.9488C53.155 76.2805 57.3195 80.445 62.6512 81.8736C64.616 82.4 67.0106 82.4 71.8 82.4H133.6C138.39 82.4 140.784 82.4 142.748 81.8736C148.081 80.445 152.245 76.2805 153.674 70.9488C154.2 68.984 154.2 66.5894 154.2 61.8C154.2 57.0106 154.2 54.616 153.674 52.6512C152.245 47.3195 148.081 43.155 142.748 41.7264C140.784 41.2 138.39 41.2 133.6 41.2ZM71.8 113.3C71.8 118.989 67.1885 123.6 61.5 123.6C55.8115 123.6 51.2 118.989 51.2 113.3C51.2 107.611 55.8115 103 61.5 103C67.1885 103 71.8 107.611 71.8 113.3ZM102.7 123.6C108.389 123.6 113 118.989 113 113.3C113 107.611 108.389 103 102.7 103C97.0113 103 92.4 107.611 92.4 113.3C92.4 118.989 97.0113 123.6 102.7 123.6ZM154.2 113.3C154.2 118.989 149.589 123.6 143.9 123.6C138.211 123.6 133.6 118.989 133.6 113.3C133.6 107.611 138.211 103 143.9 103C149.589 103 154.2 107.611 154.2 113.3ZM143.9 164.8C149.589 164.8 154.2 160.189 154.2 154.5C154.2 148.811 149.589 144.2 143.9 144.2C138.211 144.2 133.6 148.811 133.6 154.5C133.6 160.189 138.211 164.8 143.9 164.8ZM113 154.5C113 160.189 108.389 164.8 102.7 164.8C97.0113 164.8 92.4 160.189 92.4 154.5C92.4 148.811 97.0113 144.2 102.7 144.2C108.389 144.2 113 148.811 113 154.5ZM61.5 164.8C67.1885 164.8 71.8 160.189 71.8 154.5C71.8 148.811 67.1885 144.2 61.5 144.2C55.8115 144.2 51.2 148.811 51.2 154.5C51.2 160.189 55.8115 164.8 61.5 164.8Z" fill="#00536F"/>
</svg>
