<svg viewBox="0 0 154 147" fill="none" xmlns="http://www.w3.org/2000/svg">
<path d="M122.002 0.875H31.9944C21.3606 0.875 12.707 9.0211 12.707 19.0312V136.125C12.707 141.648 17.1842 146.125 22.707 146.125H131.29C136.812 146.125 141.29 141.648 141.29 136.125V19.0312C141.29 9.0211 132.636 0.875 122.002 0.875ZM38.4235 31.1354H51.2818V43.2396H38.4235V31.1354ZM51.0375 115.865H38.1792V103.76H51.0375V115.865ZM48.9094 85.6042C46.1642 85.6042 43.4125 84.6237 41.3166 82.6507L31.9944 74.2202L40.9052 65.4931L48.8837 72.7072L65.1687 57.698L74.163 66.3464L56.4251 82.6992C54.3678 84.6358 51.6418 85.6102 48.9159 85.6102L48.9094 85.6042ZM115.573 115.865H63.8957V103.76H115.573V115.865ZM115.573 79.5521H76.754L89.8823 67.4479H115.573V79.5521ZM115.573 43.2396H64.14V31.1354H115.573V43.2396Z" fill="#1D728F"/>
</svg>
