<svg width="206" height="206" viewBox="0 0 206 206" fill="none" xmlns="http://www.w3.org/2000/svg">
<g clip-path="url(#clip0_4_25)">
<path d="M5.7671 173.472C2.36907 177.139 0.519161 181.988 0.607093 186.999C0.695024 192.01 2.71393 196.791 6.23849 200.335C9.76304 203.879 14.518 205.909 19.5017 205.997C24.4854 206.085 29.3087 204.225 32.9554 200.809L96.0528 137.367L68.8645 110.03L5.7671 173.472Z" fill="white" fill-opacity="0.3"/>
<path d="M163.855 56.0314L191.507 41.6455L206 13.565L192.496 0L164.543 14.5587L150.222 42.2935L116.592 76.1197L130.225 89.8576L163.855 56.0314Z" fill="white" fill-opacity="0.3"/>
<path d="M169.884 128.9H167.266C162.704 128.926 158.184 129.77 153.92 131.392L74.7873 51.928C76.3533 47.6763 77.1525 43.1798 77.1475 38.6481L76.8901 36.0695C76.5322 29.7914 74.6343 23.6985 71.3643 18.3302C68.0943 12.9618 63.5532 8.48371 58.1429 5.29224C52.7326 2.10077 46.6201 0.294402 40.3465 0.033053C34.0728 -0.228296 27.8316 1.06343 22.1754 3.79389L47.9234 29.58C49.2173 30.8997 50.2125 32.4826 50.8416 34.2215C51.5596 36.1876 51.7888 38.2993 51.5093 40.374C51.2298 42.4487 50.45 44.424 49.2374 46.1292C48.0248 47.8345 46.4157 49.2184 44.5494 50.1613C42.683 51.1042 40.6155 51.5778 38.5254 51.5412C37.0531 51.4953 35.6004 51.1898 34.234 50.6387C32.5098 50.0042 30.9329 49.0244 29.5994 47.7592L3.85129 21.9731C1.09897 27.6366 -0.214186 33.8932 0.0284322 40.1871C0.271051 46.4811 2.06194 52.6176 5.24204 58.0518C8.42215 63.4859 12.893 68.0495 18.2577 71.3371C23.6223 74.6248 29.7146 76.5348 35.9935 76.8975L38.5254 77.3273C43.087 77.3013 47.6071 76.457 51.8715 74.8346L131.219 153.998C129.544 158.331 128.671 162.933 128.644 167.579L128.901 170.157C129.614 179.872 133.961 188.959 141.074 195.604C148.186 202.249 157.539 205.961 167.266 206C172.996 205.995 178.649 204.671 183.788 202.132L158.039 176.346C156.835 175.055 155.901 173.535 155.293 171.876C154.611 169.945 154.398 167.878 154.673 165.848C154.947 163.818 155.701 161.882 156.871 160.202C158.042 158.521 159.595 157.144 161.403 156.185C163.21 155.226 165.22 154.712 167.266 154.686C168.738 154.732 170.191 155.037 171.557 155.588C173.307 156.168 174.896 157.155 176.192 158.468L201.94 184.254C204.784 178.58 206.174 172.286 205.983 165.94C205.792 159.594 204.026 153.395 200.846 147.903C197.665 142.411 193.169 137.798 187.764 134.48C182.359 131.163 176.214 129.245 169.884 128.9Z" fill="white" fill-opacity="0.3"/>
</g>
<defs>
<clipPath id="clip0_4_25">
<rect width="206" height="206" fill="white"/>
</clipPath>
</defs>
</svg>
