<svg viewBox="0 0 40 40" fill="none" xmlns="http://www.w3.org/2000/svg">
<path d="M22.365 4H19.6888H12.5525C9.5965 4 7.2002 6.36889 7.2002 9.29104V30.4552C7.2002 33.3774 9.5965 35.7462 12.5525 35.7462H17.9047M22.365 4L32.1775 13.9207M22.365 4V12.157C22.365 13.1311 23.1637 13.9207 24.1491 13.9207H32.1775M32.1775 13.9207V19.5424" stroke="#FBFDFF" stroke-width="3" stroke-linecap="round" stroke-linejoin="round"/>
<path fill-rule="evenodd" clip-rule="evenodd" d="M23.0303 31.9946L25.0201 30.0048C25.2948 29.73 25.7402 29.73 26.015 30.0048C26.2701 30.2599 26.2883 30.6622 26.0696 30.9383L26.015 30.9997L24.0252 32.9895C23.201 33.8137 23.201 35.15 24.0252 35.9742C24.8199 36.769 26.0909 36.7974 26.9197 36.0594L27.0099 35.9742L28.9997 33.9844C29.2744 33.7097 29.7199 33.7097 29.9946 33.9844C30.2497 34.2395 30.2679 34.6418 30.0493 34.9179L29.9946 34.9793L28.0048 36.9691C26.6311 38.3428 24.4039 38.3428 23.0303 36.9691C21.6927 35.6316 21.6575 33.4849 22.9247 32.1048L23.0303 31.9946ZM29.9946 25.0303C31.3683 23.6566 33.5954 23.6566 34.9691 25.0303C36.3428 26.4039 36.3428 28.6311 34.9691 30.0048L32.9793 31.9946C32.7046 32.2693 32.2591 32.2693 31.9844 31.9946C31.7097 31.7199 31.7097 31.2744 31.9844 30.9997L33.9742 29.0099C34.7984 28.1857 34.7984 26.8494 33.9742 26.0252C33.15 25.201 31.8137 25.201 30.9895 26.0252L28.9997 28.015C28.7249 28.2897 28.2795 28.2897 28.0048 28.015C27.73 27.7402 27.73 27.2948 28.0048 27.0201L29.9946 25.0303ZM29.9946 29.0099C30.2694 28.7352 30.7148 28.7352 30.9895 29.0099C31.2643 29.2847 31.2643 29.7301 30.9895 30.0048L28.0048 32.9895C27.7301 33.2643 27.2847 33.2643 27.0099 32.9895C26.7352 32.7148 26.7352 32.2694 27.0099 31.9946L29.9946 29.0099Z" fill="#FBFDFF"/>
</svg>
