<svg width="216" height="216" viewBox="0 0 216 216" fill="none" xmlns="http://www.w3.org/2000/svg">
<g filter="url(#filter0_f_776_2378)">
<path d="M13.5986 176.419C10.2995 179.979 8.50348 184.687 8.58885 189.552C8.67422 194.417 10.6343 199.059 14.0562 202.5C17.4781 205.94 22.0946 207.911 26.9332 207.997C31.7717 208.083 36.4545 206.277 39.995 202.96L101.255 141.366L74.8581 114.825L13.5986 176.419Z" fill="white" fill-opacity="0.3"/>
<path d="M167.081 62.3994L193.928 48.4325L207.999 21.1699L194.889 8L167.749 22.1346L153.846 49.0617L121.195 81.9026L134.431 95.2404L167.081 62.3994Z" fill="white" fill-opacity="0.3"/>
<path d="M172.936 133.145H170.394C165.965 133.17 161.577 133.99 157.437 135.565L80.609 58.4155C82.1295 54.2877 82.9054 49.9221 82.9005 45.5224L82.6505 43.0189C82.3031 36.9237 80.4605 31.0082 77.2857 25.7963C74.111 20.5843 69.7021 16.2366 64.4494 13.1381C59.1967 10.0396 53.2622 8.28583 47.1713 8.03209C41.0804 7.77835 35.021 9.03246 29.5295 11.6834L54.5276 36.7185C55.7838 37.9997 56.75 39.5365 57.3607 41.2248C58.0579 43.1336 58.2803 45.1838 58.009 47.198C57.7376 49.2123 56.9806 51.1301 55.8033 52.7857C54.626 54.4413 53.0638 55.7848 51.2518 56.7003C49.4398 57.6158 47.4325 58.0756 45.4033 58.04C43.9739 57.9954 42.5635 57.6988 41.2369 57.1638C39.563 56.5477 38.0319 55.5965 36.7373 54.3682L11.7391 29.3331C9.06696 34.8317 7.79205 40.906 8.0276 47.0166C8.26316 53.1272 10.0019 59.0851 13.0894 64.3609C16.1768 69.6368 20.5175 74.0674 25.7259 77.2593C30.9343 80.4512 36.8491 82.3056 42.9451 82.6578L45.4033 83.075C49.8321 83.0498 54.2205 82.2301 58.3607 80.655L135.397 157.513C133.771 161.719 132.924 166.187 132.897 170.698L133.147 173.201C133.839 182.633 138.06 191.456 144.965 197.907C151.87 204.358 160.951 207.962 170.394 208C175.957 207.995 181.445 206.71 186.435 204.245L161.436 179.21C160.267 177.956 159.361 176.48 158.77 174.87C158.108 172.995 157.901 170.989 158.168 169.017C158.434 167.046 159.166 165.167 160.302 163.536C161.438 161.904 162.947 160.567 164.702 159.636C166.457 158.705 168.408 158.206 170.394 158.18C171.823 158.225 173.234 158.521 174.56 159.056C176.26 159.619 177.802 160.577 179.06 161.852L204.058 186.887C206.82 181.378 208.169 175.268 207.983 169.106C207.798 162.945 206.084 156.927 202.996 151.595C199.908 146.263 195.543 141.784 190.295 138.563C185.047 135.342 179.081 133.48 172.936 133.145Z" fill="white" fill-opacity="0.3"/>
</g>
<defs>
<filter id="filter0_f_776_2378" x="0" y="0" width="216" height="216" filterUnits="userSpaceOnUse" color-interpolation-filters="sRGB">
<feFlood flood-opacity="0" result="BackgroundImageFix"/>
<feBlend mode="normal" in="SourceGraphic" in2="BackgroundImageFix" result="shape"/>
<feGaussianBlur stdDeviation="4" result="effect1_foregroundBlur_776_2378"/>
</filter>
</defs>
</svg>
