<svg width="48" height="48" viewBox="0 0 48 48" fill="none" xmlns="http://www.w3.org/2000/svg">
<path fill-rule="evenodd" clip-rule="evenodd" d="M6 28.5C6.82842 28.5 7.5 29.1716 7.5 30C7.5 32.8708 7.50318 34.873 7.7063 36.3838C7.9036 37.8514 8.2645 38.6284 8.81802 39.182C9.37154 39.7356 10.1487 40.0964 11.6162 40.2938C13.1269 40.4968 15.1292 40.5 18 40.5H30C32.8708 40.5 34.873 40.4968 36.3838 40.2938C37.8514 40.0964 38.6284 39.7356 39.182 39.182C39.7356 38.6284 40.0964 37.8514 40.2938 36.3838C40.4968 34.873 40.5 32.8708 40.5 30C40.5 29.1716 41.1716 28.5 42 28.5C42.8284 28.5 43.5 29.1716 43.5 30V30.1098C43.5 32.845 43.5 35.0496 43.267 36.7836C43.025 38.5838 42.5072 40.0994 41.3034 41.3032C40.0994 42.5072 38.5838 43.025 36.7836 43.267C35.0496 43.5 32.845 43.5 30.1098 43.5H17.8903C15.1551 43.5 12.9504 43.5 11.2165 43.267C9.41628 43.025 7.90054 42.5072 6.6967 41.3034C5.49286 40.0994 4.97508 38.5838 4.73304 36.7836C4.49992 35.0496 4.49996 32.845 4.5 30.1098C4.5 30.0732 4.5 30.0366 4.5 30C4.5 29.1716 5.17158 28.5 6 28.5Z" fill="#FBFDFF" fill-opacity="0.95"/>
<path fill-rule="evenodd" clip-rule="evenodd" d="M24 4.5C24.4212 4.5 24.8228 4.67704 25.107 4.98784L33.107 13.7378C33.666 14.3492 33.6236 15.298 33.0122 15.857C32.4008 16.416 31.452 16.3736 30.893 15.7622L25.5 9.8636V32C25.5 32.8284 24.8284 33.5 24 33.5C23.1716 33.5 22.5 32.8284 22.5 32V9.8636L17.1071 15.7622C16.5481 16.3736 15.5993 16.416 14.9879 15.857C14.3765 15.298 14.334 14.3492 14.893 13.7378L22.893 4.98784C23.1772 4.67704 23.5788 4.5 24 4.5Z" fill="#FBFDFF" fill-opacity="0.95"/>
</svg>
