<svg viewBox="0 0 27 32" fill="none" xmlns="http://www.w3.org/2000/svg">
<path d="M15.1283 1.59998H12.7198H6.29703C3.63665 1.59998 1.47998 3.73197 1.47998 6.36191V25.4097C1.47998 28.0397 3.63665 30.1716 6.29703 30.1716H11.1141M15.1283 1.59998L23.9595 10.5286L15.1283 1.59998ZM15.1283 1.59998V8.94129C15.1283 9.81793 15.8472 10.5286 16.734 10.5286H23.9595M23.9595 10.5286V15.5882V10.5286Z" fill="#D9E5F0"/>
<path d="M15.1283 1.59998H12.7198H6.29703C3.63665 1.59998 1.47998 3.73197 1.47998 6.36191V25.4097C1.47998 28.0397 3.63665 30.1716 6.29703 30.1716H11.1141M15.1283 1.59998L23.9595 10.5286M15.1283 1.59998V8.94129C15.1283 9.81793 15.8472 10.5286 16.734 10.5286H23.9595M23.9595 10.5286V15.5882" stroke="#00536F" stroke-width="2" stroke-linecap="round" stroke-linejoin="round"/>
<path d="M20.7234 20.6335V25.4026V20.6335ZM20.7234 30.1716V25.4026V30.1716ZM20.7234 25.4026H15.9038H20.7234ZM20.7234 25.4026H25.543H20.7234Z" fill="#D9E5F0"/>
<path d="M20.7234 20.6335V25.4026M20.7234 25.4026V30.1716M20.7234 25.4026H15.9038M20.7234 25.4026H25.543" stroke="#00536F" stroke-width="2.5" stroke-linecap="round" stroke-linejoin="round"/>
</svg>
