<svg  viewBox="0 0 14 25" fill="none" xmlns="http://www.w3.org/2000/svg">
<path d="M4.1875 22.3438C4.1875 21.8021 4.36979 21.3385 4.73438 20.9531C5.09896 20.5573 5.61979 20.3594 6.29688 20.3594C6.97396 20.3594 7.48958 20.5573 7.84375 20.9531C8.20833 21.3385 8.39062 21.8021 8.39062 22.3438C8.39062 22.8958 8.20833 23.3698 7.84375 23.7656C7.48958 24.151 6.97396 24.3438 6.29688 24.3438C5.61979 24.3438 5.09896 24.151 4.73438 23.7656C4.36979 23.3698 4.1875 22.8958 4.1875 22.3438ZM0.453125 7.21875V6.75C0.453125 4.95833 1.01562 3.54167 2.14062 2.5C3.27604 1.45833 4.8125 0.9375 6.75 0.9375C8.71875 0.9375 10.2604 1.45833 11.375 2.5C12.4896 3.54167 13.0469 4.92188 13.0469 6.64062C13.0469 8.08854 12.7292 9.29688 12.0938 10.2656C11.4688 11.224 10.7344 12.099 9.89062 12.8906C9.02604 13.7031 8.46875 14.4427 8.21875 15.1094C7.97917 15.776 7.85938 16.4688 7.85938 17.1875V17.375H4.5625V17.1562C4.5625 15.9271 4.74479 14.9062 5.10938 14.0938C5.48438 13.2812 6.16146 12.401 7.14062 11.4531C7.98438 10.6198 8.61979 9.88542 9.04688 9.25C9.48438 8.60417 9.70312 7.77604 9.70312 6.76562C9.70312 5.76562 9.45833 4.97917 8.96875 4.40625C8.48958 3.83333 7.73958 3.54688 6.71875 3.54688C5.70833 3.54688 4.94271 3.83333 4.42188 4.40625C3.90104 4.96875 3.64062 5.78646 3.64062 6.85938V7.21875H0.453125Z" fill="#00536F"/>
</svg>
